# xmcd
#
# Track frame offsets:
#	150
#	18932
#	36585
#	48988
#	64986
#	78114
#	91790
#	104327
#	118199
#	135267
#	149648
#	163917
#	177020
#	200295
#	220672
#	236933
#	247489
#	262461
#	272572
#	288140
#	305793
#	324075
#	337258
#
# Disc length: 4699 seconds
#
# Revision: 1
# Processed by: cddbd v1.5.1PL0 Copyright (c) Steve Scherf et al.
# Submitted via: audiograbber 1.83.01
#
DISCID=63125917
DTITLE=Mirek Hoffmann (Zelenaci Mirka Hoffmanna) - Zlaty vyber CD1
DYEAR=2004
DGENRE=Country
TTITLE0=Oranzovy expres
TTITLE1=Co se bude dit
TTITLE2=Bilej snih
TTITLE3=Osudem tvym byl Black and White
TTITLE4=V busi je domov muj
TTITLE5=Tisic carek
TTITLE6=Neni vsechno zlaty, co se trpyti
TTITLE7=Mam kovboje cejch
TTITLE8=Farmarova dcera
TTITLE9=At te country pohladi
TTITLE10=U silnice E-55
TTITLE11=Vlak ma zelenou
TTITLE12=Byl jsem v country nebi
TTITLE13=Pastor z Little Fort
TTITLE14=Kovbojuv stesk
TTITLE15=Vuz do Tennessee
TTITLE16=Zloutnou uz travy
TTITLE17=Hej, Joe
TTITLE18=Tak good by, adieu
TTITLE19=Propasnul jsem sanci
TTITLE20=Chces si vzit chlapa
TTITLE21=Kuchar z Fowler's Bay
TTITLE22=Posledni prani
EXTD=vyber 2004 Universal music
EXTT0=
EXTT1=
EXTT2=
EXTT3=
EXTT4=
EXTT5=
EXTT6=
EXTT7=
EXTT8=
EXTT9=
EXTT10=
EXTT11=
EXTT12=
EXTT13=
EXTT14=
EXTT15=
EXTT16=
EXTT17=
EXTT18=
EXTT19=
EXTT20=
EXTT21=
EXTT22=
PLAYORDER=
